<?xml version="1.0" encoding="UTF-8"?>
<!DOCTYPE svg PUBLIC "-//W3C//DTD SVG 1.1//EN" "http://www.w3.org/Graphics/SVG/1.1/DTD/svg11.dtd">
<!-- Creator: CorelDRAW 2018 (64 Bit Versão de avaliação) -->
<svg xmlns="http://www.w3.org/2000/svg" xml:space="preserve" width="4961px" height="3508px" version="1.1" style="shape-rendering:geometricPrecision; text-rendering:geometricPrecision; image-rendering:optimizeQuality; fill-rule:evenodd; clip-rule:evenodd"
viewBox="0 0 4961 3508"
 xmlns:xlink="http://www.w3.org/1999/xlink">
 <defs>
  <style type="text/css">
   <![CDATA[
    .fil0 {fill:#FFF212}
    .fil5 {fill:#F58634}
    .fil3 {fill:#EC268F}
    .fil4 {fill:#00AFEF}
    .fil1 {fill:#00A859}
    .fil2 {fill:#FEFEFE;fill-rule:nonzero}
   ]]>
  </style>
 </defs>
 <g id="Camada_x0020_1">
  <metadata id="CorelCorpID_0Corel-Layer"/>
  <rect class="fil0" x="3736" y="1151" width="1226" height="1226" rx="181" ry="181"/>
  <rect class="fil1" x="6" y="1151" width="1226" height="1226" rx="181" ry="181"/>
  <path class="fil2" d="M3965 1708l-110 0 0 43 98 0c14,0 23,3 28,8 5,5 8,15 8,29l0 17c0,14 -3,24 -8,29 -5,5 -15,8 -29,8l-90 0c-14,0 -24,-3 -29,-8 -5,-5 -8,-15 -8,-29l0 -4 24 -6 0 25 115 0 0 -47 -97 0c-14,0 -24,-3 -29,-8 -5,-5 -7,-15 -7,-29l0 -13c0,-14 3,-24 7,-29 5,-5 15,-8 29,-8l82 0c14,0 23,3 29,8 5,5 8,14 8,26l0 3 -22 6 0 -23z"/>
  <polygon id="1" class="fil2" points="4127,1708 4127,1842 4101,1842 4101,1708 4031,1708 4031,1687 4198,1687 4198,1708 "/>
  <path id="2" class="fil2" d="M4268 1687l0 133 113 0 0 -133 26 0 0 118c0,14 -3,24 -8,29 -5,5 -15,8 -29,8l-92 0c-14,0 -24,-3 -29,-8 -5,-5 -8,-15 -8,-29l0 -118 26 0z"/>
  <path id="3" class="fil2" d="M4568 1708l-56 0 0 112 56 0c25,0 43,-4 53,-13 10,-9 16,-23 16,-44 0,-20 -5,-34 -16,-42 -11,-9 -28,-13 -53,-13zm4 -21c14,0 26,1 36,3 9,2 17,5 24,9 10,7 18,16 24,27 6,11 9,24 9,38 0,14 -3,27 -8,39 -6,12 -14,21 -24,27 -6,4 -14,7 -24,9 -9,2 -21,3 -36,3l-85 0 0 -155 85 0z"/>
  <polygon id="4" class="fil2" points="4768,1842 4768,1774 4689,1687 4721,1687 4782,1756 4840,1687 4871,1687 4794,1774 4794,1842 "/>
  <rect class="fil3" x="2930" y="741" width="1226" height="1226" rx="181" ry="181"/>
  <path class="fil2" d="M358 1837c-14,0 -24,-2 -28,-7 -5,-5 -7,-14 -7,-27l0 -28 28 -6 0 46 77 0 0 -124 28 0 0 111c0,13 -2,22 -7,27 -5,5 -14,7 -28,7l-61 0z"/>
  <path id="1" class="fil2" d="M546 1815l122 0 0 -102 -122 0 0 102zm-28 -89c0,-13 3,-22 8,-27 5,-5 14,-7 28,-7l105 0c14,0 23,2 28,7 5,5 8,14 8,27l0 77c0,13 -2,22 -7,27 -5,5 -14,7 -28,7l-105 0c-14,0 -23,-2 -28,-7 -5,-5 -7,-14 -7,-27l0 -77z"/>
  <path id="2" class="fil2" d="M787 1771l0 44 84 0c6,0 11,-1 13,-4 2,-2 4,-7 4,-13l0 -11c0,-6 -1,-10 -4,-13 -2,-2 -7,-4 -13,-4l-84 0zm100 -33l0 -14c0,-4 -1,-8 -3,-9 -2,-2 -6,-3 -12,-3l-84 0 0 37 84 0c6,0 11,-1 13,-3 2,-2 3,-5 3,-9zm-128 99l0 -146 123 0c11,0 19,2 24,7 5,5 8,12 8,22l0 17c0,8 -2,14 -6,18 -4,4 -10,6 -19,7 9,1 15,4 20,9 5,5 7,11 7,20l0 19c0,10 -4,17 -10,21 -7,5 -18,7 -32,7l-114 0z"/>
  <rect class="fil4" x="807" y="741" width="1226" height="1226" rx="181" ry="181"/>
  <polygon class="fil2" points="1128,1290 1128,1443 1098,1443 1098,1290 1017,1290 1017,1266 1209,1266 1209,1290 "/>
  <path id="1" class="fil2" d="M1391 1289l-102 0 0 62 102 0c7,0 12,-1 15,-4 3,-3 4,-7 4,-14l0 -26c0,-7 -1,-11 -4,-14 -3,-3 -8,-4 -15,-4zm-131 154l0 -177 143 0c13,0 23,3 29,8 6,5 9,14 9,26l0 40c0,12 -3,21 -9,26 -6,5 -15,8 -29,8l-26 0 81 69 -44 0 -72 -69 -52 0 0 69 -30 0z"/>
  <polygon id="2" class="fil2" points="1521,1443 1521,1266 1551,1266 1551,1443 "/>
  <path id="3" class="fil2" d="M1775 1289l-102 0 0 62 102 0c7,0 12,-1 15,-4 3,-3 4,-8 4,-14l0 -25c0,-7 -1,-12 -4,-14 -3,-3 -8,-4 -15,-4zm-131 154l0 -177 143 0c13,0 23,3 29,8 6,5 9,14 9,26l0 40c0,12 -3,21 -9,26 -6,5 -15,8 -29,8l-113 0 0 69 -30 0z"/>
  <polygon class="fil2" points="3073,1414 3073,1295 3093,1295 3093,1344 3187,1344 3187,1295 3206,1295 3206,1414 3187,1414 3187,1360 3093,1360 3093,1414 "/>
  <path id="1" class="fil2" d="M3286 1397l98 0 0 -86 -98 0 0 86zm-20 -74c0,-11 2,-18 6,-22 4,-4 11,-6 22,-6l82 0c11,0 18,2 22,6 4,4 6,11 6,22l0 62c0,11 -2,18 -6,22 -4,4 -11,6 -22,6l-82 0c-11,0 -18,-2 -22,-6 -4,-4 -6,-11 -6,-22l0 -62z"/>
  <path id="2" class="fil2" d="M3565 1383l0 -10c0,-5 -1,-9 -3,-11 -2,-2 -5,-3 -10,-3l-68 0 0 38 68 0c5,0 8,-1 10,-3 2,-2 3,-6 3,-11zm-1 -50l0 -12c0,-4 -1,-7 -3,-8 -2,-1 -5,-2 -10,-2l-68 0 0 33 68 0c5,0 8,-1 9,-2 2,-2 3,-4 3,-8zm-100 80l0 -118 96 0c9,0 15,2 19,5 4,4 6,9 6,17l0 14c0,6 -2,11 -5,14 -3,3 -8,5 -15,6 7,1 12,3 15,7 3,4 5,9 5,16l0 15c0,8 -3,14 -8,18 -5,4 -14,6 -25,6l-88 0z"/>
  <path id="3" class="fil2" d="M3741 1383l0 -10c0,-5 -1,-9 -3,-11 -2,-2 -5,-3 -10,-3l-68 0 0 38 68 0c5,0 8,-1 10,-3 2,-2 3,-6 3,-11zm-1 -50l0 -12c0,-4 -1,-7 -3,-8 -2,-1 -5,-2 -10,-2l-68 0 0 33 68 0c5,0 8,-1 9,-2 2,-2 3,-4 3,-8zm-100 80l0 -118 96 0c9,0 15,2 19,5 4,4 6,9 6,17l0 14c0,6 -2,11 -5,14 -3,3 -8,5 -15,6 7,1 12,3 15,7 3,4 5,9 5,16l0 15c0,8 -3,14 -8,18 -5,4 -14,6 -25,6l-88 0z"/>
  <polygon id="4" class="fil2" points="3816,1414 3816,1295 3835,1295 3835,1414 "/>
  <polygon id="5" class="fil2" points="3897,1414 3897,1295 4011,1295 4011,1311 3917,1311 3917,1344 3974,1344 3974,1360 3917,1360 3917,1397 4012,1397 4012,1414 "/>
  <rect class="fil5" x="1867" y="521" width="1226" height="1226" rx="181" ry="181"/>
  <polygon class="fil2" points="2155,1104 2155,1257 2126,1257 2126,1104 2045,1104 2045,1080 2237,1080 2237,1104 "/>
  <path id="1" class="fil2" d="M2291 1191l96 0 -48 -91 -48 91zm-64 66l97 -177 32 0 99 177 -33 0 -23 -44 -120 0 -23 44 -29 0z"/>
  <path id="2" class="fil2" d="M2663 1104l-125 0 0 50 112 0c16,0 27,3 32,9 6,6 9,17 9,33l0 20c0,16 -3,28 -9,33 -6,6 -17,9 -33,9l-104 0c-16,0 -27,-3 -33,-9 -6,-6 -9,-17 -9,-33l0 -5 28 -6 0 29 132 0 0 -53 -111 0c-16,0 -27,-3 -33,-9 -6,-6 -9,-17 -9,-33l0 -15c0,-16 3,-27 9,-33 6,-6 17,-9 33,-9l94 0c16,0 27,3 33,9 6,6 9,16 9,30l0 4 -25 7 0 -26z"/>
  <polygon id="3" class="fil2" points="2780,1257 2780,1080 2810,1080 2810,1156 2920,1080 2964,1080 2835,1165 2978,1257 2928,1257 2810,1177 2810,1257 "/>
 </g>
</svg>
